@startuml
[*] --> Ecran
note on link
    Fait par demarrer()
end note
state Ecran {
    state "EcranNonConnecté" as EcranNonConnecté
    state "EcranPrincipal" as EcranPrincipal
    state "EcranVerrouillé" as EcranVerrouillé
    state "EcranSelectionExplo " as EcranSelectionExplo 
    state "EcranOption" as EcranOption

    state c <<choice>>

    [*] --> EcranNonConnecté
    EcranNonConnecté --> c : SeConnecter()

    c --> EcranNonConnecté : [Connection Perdue]
    c --> EcranPrincipal
    c --> EcranVerrouillé : [robotVerrouille]
    EcranVerrouillé --> EcranPrincipal: Verrouiller()
    EcranPrincipal--> EcranVerrouillé :Deverrouiller()
    EcranPrincipal--> EcranSelectionExplo : SelectAlgo()
    EcranSelectionExplo --> EcranPrincipal: Valider()
    EcranSelectionExplo --> EcranPrincipal: Annuler()
    EcranPrincipal--> EcranOption :SelectOption()
    EcranOption --> EcranPrincipal:Valider()
    EcranOption --> EcranPrincipal:Annuler()
}
Ecran --> Deconnecter
Ecran --> [*] : quitter()
@enduml